<svg id="Layer_1" data-name="Layer 1" xmlns="http://www.w3.org/2000/svg" viewBox="0 0 456 114"><defs><style>.cls-1{fill:#0a66c2;}</style></defs><title>linkedin-logo</title><path class="cls-1" d="M378.14,199h97.71a8.14,8.14,0,0,1,8.14,8.14v97.71a8.14,8.14,0,0,1-8.14,8.14H378.14a8.14,8.14,0,0,1-8.14-8.14V207.14a8.14,8.14,0,0,1,8.14-8.14Zm11.08,32.2a9.5,9.5,0,1,0-3.38-4.32A9.5,9.5,0,0,0,389.23,231.2Zm62.2,65.52h16.29l-.22-33.87c0-16.67-10.26-21.71-19.87-21.71A22,22,0,0,0,429.71,250v-7.55H413.43v54.29h16.29V269.57a12.54,12.54,0,0,1,11.73-13.73c6,0,10,4.45,10,13.25Zm-65.14-54.29v54.29h16.29V242.43Z" transform="translate(-28 -199)"/><path class="cls-1" d="M90.66,215.66A9.5,9.5,0,1,1,87.28,220,9.5,9.5,0,0,1,90.66,215.66Z" transform="translate(-28 -199)"/><path class="cls-1" d="M87.71,242.43H104v54.29H87.71Z" transform="translate(-28 -199)"/><path class="cls-1" d="M149.27,241.13A22,22,0,0,0,131.14,250v-7.55H114.86v54.29h16.29V269.57a12.54,12.54,0,0,1,11.73-13.46c6,0,10,4.45,10,13.25v27.36h16.29V262.79C169.14,246.17,158.88,241.13,149.27,241.13Z" transform="translate(-28 -199)"/><path class="cls-1" d="M44.29,215.29H28v81.43H76.86V280.43H44.29Z" transform="translate(-28 -199)"/><path class="cls-1" d="M329.57,242.51a23,23,0,0,1,7.86,5.35V215.29h16.29v81.43H338.41V289.6a20.52,20.52,0,0,1-18,8.74A27.14,27.14,0,0,1,294,269.25a26.6,26.6,0,0,1,26.22-28.45A23,23,0,0,1,329.57,242.51ZM318,283.59a14,14,0,0,0,5.63,1.18A14.11,14.11,0,0,0,338,269.57a14.28,14.28,0,0,0-14.33-15.2A15.33,15.33,0,0,0,318,283.59Z" transform="translate(-28 -199)"/><path class="cls-1" d="M234.5,242.43H214.74l-18.13,21.93h-.33V215.29H180v81.43h16.29V270.6h.33l18.57,26.11h20.36l-22-29.86Z" transform="translate(-28 -199)"/><path class="cls-1" d="M251.31,242.74a27.14,27.14,0,0,1,10.82-1.94c14.77,0,26.44,9.88,26,30V275h-38v.33a12.16,12.16,0,0,0,12.92,10.86,17.8,17.8,0,0,0,13-5.43l10.48,7.06a29.86,29.86,0,0,1-23.83,10.53,27.74,27.74,0,0,1-28.45-29.48,27.14,27.14,0,0,1,17-26.13ZM253.84,256a11.73,11.73,0,0,0-3.64,8.18H273a10.86,10.86,0,0,0-10.86-11.4A11.73,11.73,0,0,0,253.84,256Z" transform="translate(-28 -199)"/></svg>